<svg xmlns="http://www.w3.org/2000/svg" viewBox="0 0 220 222.5" width="80" height="80" role="img" aria-label="1111"><path d="M0 222.25V0h220v222.5H0zm40.08-85.24 28.8-.02-.06-8.09-9.87-.16-.02-37.03c-8.98-.37-9.79.08-18.14 2.17l-.14 8.43 8.86-2.14.02 28.67-9.53.03.09 8.14Zm37.29 0 28.68-.02.17-8.21-10.06-.02-.03-36.96c-4.12-.23-8.32-.38-12.41.59l-5.97 1.41.29 8.4 9.11-2.08v28.63l-9.91.16.13 8.09Zm37.13 0h28.69l.14-8.23h-10l-.03-37.04c-8.77-.48-9.89.22-18.15 1.97l.06 8.72 9.11-2.3v28.67l-10.09.02.25 8.2Zm37.3 0 28.63-.03v-8.11l-9.91-.06-.04-37.13c-3.43.03-6.76-.5-9.87.2l-8.34 1.85-.05 8.59 9.29-2.27.05 28.68-9.94.16.17 8.1Z" fill="#1a1a1a"/><path d="m77.37 137.01-.13-8.09 9.92-.16v-28.63l-9.13 2.08-.29-8.4 5.97-1.41c4.09-.97 8.28-.82 12.41-.59l.03 36.96 10.06.02-.17 8.21-28.68.02ZM114.5 137.01l-.25-8.2 10.09-.02v-28.67l-9.11 2.3-.06-8.72c8.26-1.75 9.38-2.45 18.15-1.97l.03 37.03h10l-.14 8.23h-28.69ZM40.08 137.01l-.09-8.14 9.53-.03-.02-28.67-8.86 2.14.14-8.43c8.35-2.09 9.15-2.54 18.14-2.17l.02 37.03 9.87.16.06 8.09-28.8.02ZM151.8 137.01l-.17-8.1 9.94-.16-.05-28.68-9.29 2.27.05-8.59 8.34-1.85c3.12-.69 6.45-.16 9.87-.2l.04 37.13 9.91.06V137l-28.63.03Z" fill="white"/></svg>
